<?xml version="1.0" standalone="no"?>
<!DOCTYPE svg PUBLIC "-//W3C//DTD SVG 20010904//EN"
 "http://www.w3.org/TR/2001/REC-SVG-20010904/DTD/svg10.dtd">
<svg version="1.0" xmlns="http://www.w3.org/2000/svg"
 width="202.000000pt" height="36.000000pt" viewBox="0 0 202.000000 36.000000"
 preserveAspectRatio="xMidYMid meet">
<metadata>
Created by potrace 1.16, written by Peter Selinger 2001-2019
</metadata>
<g transform="translate(0.000000,36.000000) scale(0.100000,-0.100000)"
fill="#000000" stroke="none">
<path d="M82 193 c-40 -93 -72 -174 -72 -180 0 -9 16 -13 45 -13 42 0 46 2 59
35 12 29 20 35 45 35 24 0 34 7 46 30 21 41 19 50 -14 50 l-29 0 43 105 44
105 -48 0 -48 0 -71 -167z"/>
<path d="M370 305 c-22 -53 -22 -56 -5 -97 9 -24 19 -49 22 -55 4 -9 -7 -13
-33 -13 -22 0 -34 -4 -27 -8 6 -4 16 -20 22 -35 8 -21 17 -27 41 -27 25 0 33
-6 47 -35 16 -33 20 -35 65 -35 26 0 48 1 48 3 0 5 -148 349 -153 353 -2 3
-14 -20 -27 -51z"/>
<path d="M1475 235 c-19 -18 -25 -35 -25 -69 0 -59 30 -95 86 -103 33 -4 45
-1 71 21 35 29 45 64 31 112 -12 44 -42 64 -96 64 -32 0 -49 -6 -67 -25z"/>
<path d="M1672 163 c2 -64 7 -98 15 -100 9 -3 13 17 15 68 l3 72 54 -71 c30
-40 61 -72 68 -72 10 0 13 24 13 100 0 81 -3 100 -15 100 -11 0 -15 -16 -17
-67 l-3 -67 -50 67 c-28 37 -58 66 -68 67 -16 0 -17 -9 -15 -97z"/>
</g>
</svg>
